{
  "accessors": [
    {
      "bufferView": 2,
      "componentType": 5126,
      "count": 1297,
      "max": [
        0.80035001039505005,
        0.28797999024391174,
        5.0663700103759766
      ],
      "min": [
        -0.80035001039505005,
        -0.2862200140953064,
        -4.1401000022888184
      ],
      "type": "VEC3"
    },
    {
      "bufferView": 2,
      "byteOffset": 15564,
      "componentType": 5126,
      "count": 1297,
      "max": [
        1,
        1,
        1
      ],
      "min": [
        -1,
        -1,
        -1
      ],
      "type": "VEC3"
    },
    {
      "bufferView": 3,
      "componentType": 5126,
      "count": 1297,
      "max": [
        0.9999232292175293,
        0.99992609024047852,
        0.90515047311782837,
        1
      ],
      "min": [
        -0.99197506904602051,
        -0.99939024448394775,
        -0.99966937303543091,
        1
      ],
      "type": "VEC4"
    },
    {
      "bufferView": 1,
      "componentType": 5126,
      "count": 1297,
      "max": [
        0.9740300178527832,
        0.98030000925064087
      ],
      "min": [
        0.010859999805688858,
        0.0096399998292326927
      ],
      "type": "VEC2"
    },
    {
      "bufferView": 0,
      "componentType": 5125,
      "count": 5250,
      "max": [
        1296
      ],
      "min": [
        0
      ],
      "type": "SCALAR"
    }
  ],
  "asset": {
    "extras": {
      "author": "FedeOde (https://sketchfab.com/FedeOde)",
      "license": "CC-BY-4.0 (http://creativecommons.org/licenses/by/4.0/)",
      "source": "https://sketchfab.com/models/98a14cb81f974fb89775b5cfe269bd28",
      "title": "Rapier Sword"
    },
    "generator": "Sketchfab-3.22.11",
    "version": "2.0"
  },
  "bufferViews": [
    {
      "buffer": 0,
      "byteLength": 21000,
      "byteOffset": 0,
      "name": "floatBufferViews",
      "target": 34963
    },
    {
      "buffer": 0,
      "byteLength": 10376,
      "byteOffset": 21000,
      "byteStride": 8,
      "name": "floatBufferViews",
      "target": 34962
    },
    {
      "buffer": 0,
      "byteLength": 31128,
      "byteOffset": 31376,
      "byteStride": 12,
      "name": "floatBufferViews",
      "target": 34962
    },
    {
      "buffer": 0,
      "byteLength": 20752,
      "byteOffset": 62504,
      "byteStride": 16,
      "name": "floatBufferViews",
      "target": 34962
    }
  ],
  "buffers": [
    {
      "byteLength": 83256,
      "uri": "scene.bin"
    }
  ],
  "images": [
    {
      "uri": "textures/Ropera_metallicRoughness.png"
    },
    {
      "uri": "textures/Ropera_normal.png"
    },
    {
      "uri": "textures/Ropera_baseColor.png"
    }
  ],
  "materials": [
    {
      "doubleSided": true,
      "emissiveFactor": [
        0,
        0,
        0
      ],
      "name": "Ropera",
      "normalTexture": {
        "index": 1,
        "scale": 1,
        "texCoord": 0
      },
      "occlusionTexture": {
        "index": 0,
        "strength": 1,
        "texCoord": 0
      },
      "pbrMetallicRoughness": {
        "baseColorFactor": [
          1,
          1,
          1,
          1
        ],
        "baseColorTexture": {
          "index": 2,
          "texCoord": 0
        },
        "metallicFactor": 1,
        "metallicRoughnessTexture": {
          "index": 0,
          "texCoord": 0
        },
        "roughnessFactor": 1
      }
    }
  ],
  "meshes": [
    {
      "name": "EspadaRopera_0",
      "primitives": [
        {
          "attributes": {
            "NORMAL": 1,
            "POSITION": 0,
            "TANGENT": 2,
            "TEXCOORD_0": 3
          },
          "indices": 4,
          "material": 0,
          "mode": 4
        }
      ]
    }
  ],
  "nodes": [
    {
      "children": [
        1
      ],
      "name": "RootNode (gltf orientation matrix)",
      "rotation": [
        -0.70710678118654746,
        -0,
        -0,
        0.70710678118654757
      ]
    },
    {
      "children": [
        2
      ],
      "matrix": [
        0.49254292249679565,
        -0.2331196516752243,
        -0.83848476409912109,
        0,
        0.11807461827993393,
        0.97244805097579956,
        -0.20100536942481995,
        0,
        0.86224120855331421,
        0,
        0.50649791955947876,
        0,
        -0.38937780261039734,
        -0.010332061909139156,
        0.36792153120040894,
        1
      ],
      "name": "RootNode (model correction matrix)"
    },
    {
      "children": [
        3,
        5
      ],
      "name": "Root"
    },
    {
      "children": [
        4
      ],
      "matrix": [
        -0.28372000000000003,
        0.38946000000000008,
        0.87626000000000004,
        0,
        -0.78271000000000002,
        -0.62196000000000007,
        0.023000000000000007,
        0,
        0.55395000000000005,
        -0.6793300000000001,
        0.48130000000000006,
        0,
        4.0762500000000008,
        -5.0293000000000001,
        6.5840399999999999,
        1
      ],
      "name": "Lamp"
    },
    {
      "name": "Lamp"
    },
    {
      "children": [
        6
      ],
      "name": "EspadaRopera"
    },
    {
      "mesh": 0,
      "name": "EspadaRopera_0"
    }
  ],
  "samplers": [
    {
      "magFilter": 9729,
      "minFilter": 9987,
      "wrapS": 10497,
      "wrapT": 10497
    }
  ],
  "scene": 0,
  "scenes": [
    {
      "name": "OSG_Scene",
      "nodes": [
        0
      ]
    }
  ],
  "textures": [
    {
      "sampler": 0,
      "source": 0
    },
    {
      "sampler": 0,
      "source": 1
    },
    {
      "sampler": 0,
      "source": 2
    }
  ]
}

